<svg width="161" height="66" viewBox="0 0 161 66" fill="none" xmlns="http://www.w3.org/2000/svg">
<path d="M30.5509 41.459C30.4185 42.7871 29.6906 43.5065 28.3671 43.6172C27.7494 43.6172 27.209 43.418 26.7457 43.0195C26.3046 42.599 26.084 42.0788 26.084 41.459V25.7207C26.106 25.1009 26.3377 24.5918 26.7788 24.1934C27.22 23.7728 27.7494 23.5625 28.3671 23.5625H29.9884H34.0582H42.231C42.3634 23.5625 42.4957 23.5736 42.6281 23.5957H42.8266C44.3708 23.64 45.6391 23.9941 46.6318 24.6582C47.6244 25.3223 48.3413 26.0859 48.7825 26.9492C49.2237 27.7904 49.4443 28.6426 49.4443 29.5059C49.4443 30.3913 49.2237 31.2656 48.7825 32.1289C48.3634 32.9701 47.6465 33.7227 46.6318 34.3867C45.6391 35.0508 44.3708 35.4049 42.8266 35.4492H37.0031C37.1796 36.556 37.5435 37.375 38.095 37.9062C38.6244 38.4375 39.2972 38.7031 40.1134 38.7031H47.2605C47.8781 38.7253 48.3855 38.9577 48.7825 39.4004C49.2016 39.8431 49.4112 40.3743 49.4112 40.9941C49.3891 41.5918 49.1685 42.1009 48.7494 42.5215C48.3524 42.9199 47.856 43.1302 47.2605 43.1523H39.5178C37.8855 43.1745 36.4075 42.5326 35.084 41.2266C33.7605 39.9206 32.9553 38.3711 32.6685 36.5781C32.2715 34.5859 32.073 33.4681 32.073 33.2246C32.073 32.6048 32.2825 32.0846 32.7016 31.6641C33.1428 31.2214 33.6722 31 34.2899 31H43.0252C43.4443 30.9779 43.7862 30.8893 44.0509 30.7344C44.3377 30.5573 44.5472 30.3691 44.6796 30.1699C44.8119 29.9486 44.8781 29.7272 44.8781 29.5059C44.8781 29.2845 44.8119 29.0742 44.6796 28.875C44.5472 28.6536 44.3377 28.4655 44.0509 28.3105C43.7862 28.1335 43.4443 28.0339 43.0252 28.0117H34.0582H31.4112C30.8377 28.0339 30.5509 28.3216 30.5509 28.875V41.459Z" fill="white"/>
<path d="M73.992 42V25.2H81.264C82.768 25.2 84.064 25.448 85.152 25.944C86.24 26.424 87.08 27.12 87.672 28.032C88.264 28.944 88.56 30.032 88.56 31.296C88.56 32.544 88.264 33.624 87.672 34.536C87.08 35.432 86.24 36.12 85.152 36.6C84.064 37.08 82.768 37.32 81.264 37.32H76.152L77.88 35.616V42H73.992ZM84.672 42L80.472 35.904H84.624L88.872 42H84.672ZM77.88 36.048L76.152 34.224H81.048C82.248 34.224 83.144 33.968 83.736 33.456C84.328 32.928 84.624 32.208 84.624 31.296C84.624 30.368 84.328 29.648 83.736 29.136C83.144 28.624 82.248 28.368 81.048 28.368H76.152L77.88 26.52V36.048ZM91.3764 42V29.088H95.1204V42H91.3764ZM93.2484 27.288C92.5604 27.288 92.0004 27.088 91.5684 26.688C91.1364 26.288 90.9204 25.792 90.9204 25.2C90.9204 24.608 91.1364 24.112 91.5684 23.712C92.0004 23.312 92.5604 23.112 93.2484 23.112C93.9364 23.112 94.4964 23.304 94.9284 23.688C95.3604 24.056 95.5764 24.536 95.5764 25.128C95.5764 25.752 95.3604 26.272 94.9284 26.688C94.5124 27.088 93.9524 27.288 93.2484 27.288ZM104.139 42.192C102.923 42.192 101.827 41.92 100.851 41.376C99.8752 40.816 99.0992 40.04 98.5232 39.048C97.9632 38.056 97.6832 36.888 97.6832 35.544C97.6832 34.184 97.9632 33.008 98.5232 32.016C99.0992 31.024 99.8752 30.256 100.851 29.712C101.827 29.168 102.923 28.896 104.139 28.896C105.227 28.896 106.179 29.136 106.995 29.616C107.811 30.096 108.443 30.824 108.891 31.8C109.339 32.776 109.563 34.024 109.563 35.544C109.563 37.048 109.347 38.296 108.915 39.288C108.483 40.264 107.859 40.992 107.043 41.472C106.243 41.952 105.275 42.192 104.139 42.192ZM104.787 39.12C105.395 39.12 105.947 38.976 106.443 38.688C106.939 38.4 107.331 37.992 107.619 37.464C107.923 36.92 108.075 36.28 108.075 35.544C108.075 34.792 107.923 34.152 107.619 33.624C107.331 33.096 106.939 32.688 106.443 32.4C105.947 32.112 105.395 31.968 104.787 31.968C104.163 31.968 103.603 32.112 103.107 32.4C102.611 32.688 102.211 33.096 101.907 33.624C101.619 34.152 101.475 34.792 101.475 35.544C101.475 36.28 101.619 36.92 101.907 37.464C102.211 37.992 102.611 38.4 103.107 38.688C103.603 38.976 104.163 39.12 104.787 39.12ZM108.171 42V39.36L108.243 35.52L108.003 31.704V24.192H111.747V42H108.171ZM121.62 42.192C120.148 42.192 118.852 41.904 117.732 41.328C116.628 40.752 115.772 39.968 115.164 38.976C114.556 37.968 114.252 36.824 114.252 35.544C114.252 34.248 114.548 33.104 115.14 32.112C115.748 31.104 116.572 30.32 117.612 29.76C118.652 29.184 119.828 28.896 121.14 28.896C122.404 28.896 123.54 29.168 124.548 29.712C125.572 30.24 126.38 31.008 126.972 32.016C127.564 33.008 127.86 34.2 127.86 35.592C127.86 35.736 127.852 35.904 127.836 36.096C127.82 36.272 127.804 36.44 127.788 36.6H117.3V34.416H125.82L124.38 35.064C124.38 34.392 124.244 33.808 123.972 33.312C123.7 32.816 123.324 32.432 122.844 32.16C122.364 31.872 121.804 31.728 121.164 31.728C120.524 31.728 119.956 31.872 119.46 32.16C118.98 32.432 118.604 32.824 118.332 33.336C118.06 33.832 117.924 34.424 117.924 35.112V35.688C117.924 36.392 118.076 37.016 118.38 37.56C118.7 38.088 119.14 38.496 119.7 38.784C120.276 39.056 120.948 39.192 121.716 39.192C122.404 39.192 123.004 39.088 123.516 38.88C124.044 38.672 124.524 38.36 124.956 37.944L126.948 40.104C126.356 40.776 125.612 41.296 124.716 41.664C123.82 42.016 122.788 42.192 121.62 42.192ZM130.353 42V29.088H133.929V32.736L133.425 31.68C133.809 30.768 134.425 30.08 135.273 29.616C136.121 29.136 137.153 28.896 138.369 28.896V32.352C138.209 32.336 138.065 32.328 137.937 32.328C137.809 32.312 137.673 32.304 137.529 32.304C136.505 32.304 135.673 32.6 135.033 33.192C134.409 33.768 134.097 34.672 134.097 35.904V42H130.353Z" fill="white"/>
</svg>
